<svg xmlns="http://www.w3.org/2000/svg" viewBox="0 0 160 170" role="img" aria-labelledby="title">
  <title>Moontuner logo</title>
  <defs>
    <g id="mark-lines" fill="none" stroke-linecap="round" stroke-linejoin="round">
      <path d="M22 42C10 57 4 77 4 98s6 41 18 56" />
      <path d="M42 56C32 67 27 82 27 98s5 31 15 42" />
      <path d="M61 72c-6 7-9 16-9 26s3 19 9 26" />
      <path d="M138 42c12 15 18 35 18 56s-6 41-18 56" />
      <path d="M118 56c10 11 15 26 15 42s-5 31-15 42" />
      <path d="M99 72c6 7 9 16 9 26s-3 19-9 26" />
      <path d="M80 72v54" />
      <path d="M80 126v34" />
      <circle cx="80" cy="144" r="16" />
    </g>
  </defs>
  <use href="#mark-lines" stroke="#050505" stroke-width="20" />
  <use href="#mark-lines" stroke="#ffffff" stroke-width="12" />
  <path
    d="M81 8c-23 0-41 18-41 41 0 24 18 42 40 42 18 0 34-12 39-29-5 26-28 46-56 46-31 0-56-25-56-56S32 0 63 0c28 0 51 20 56 46C115 20 99 8 81 8Z"
    fill="#ffffff"
    stroke="#050505"
    stroke-linejoin="round"
    stroke-width="8"
  />
</svg>
